<?xml version="1.0" encoding="utf-8"?>
<!-- Generator: Adobe Illustrator 23.0.1, SVG Export Plug-In . SVG Version: 6.00 Build 0)  -->
<svg version="1.1" id="Camada_1" xmlns="http://www.w3.org/2000/svg" xmlns:xlink="http://www.w3.org/1999/xlink" x="0px" y="0px"
	 viewBox="0 0 1325.5 247.6" style="enable-background:new 0 0 1325.5 247.6;" xml:space="preserve">
<style type="text/css">
	.st0{fill:#FFFFFF;}
	.st1{display:none;}
	.st2{fill:none;}
</style>
<g>
	<path class="st0" d="M138.5,205.6c1.3-2.9,2.4-5.5,3.6-7.9c5.5-10.8,9.3-22.2,11.3-33.9c0.9-5,0.1-10.3,0.1-16.1
		c-0.9,0.7-1.7,1.1-2.1,1.7c-5.5,7.3-11.3,14.4-18.9,19.9c-1.5,1.1-3,2.4-4.8,3.2c-4.6,2-7,2.8-11.6-1.4c-7-6.2-12.1-13.4-14.7-22.2
		c-0.7-2.2-0.3-3.5,1.9-4.4c1.7-0.7,3.1-1.8,4.7-2.8c2.1-1.3,3.1-0.3,4.5,1.2c3,3.3,6.2,6.4,9.6,9.3c2.4,2,4.1,1.6,5.4-1
		c5.5-10.8,8.6-22,6.5-34.2c-0.5-2.6-0.9-5.2-1.5-7.7c-0.3-1.2-1.1-2.8-2.7-1.3c-5.1,4.9-10.5,9.7-14.8,15.2
		c-2.8,3.5-3.9,8.2-5.9,12.4c-0.5,1-1.2,2-2.1,2.6c-2.5,1.7-5.2,3.1-8,4.8c-1.5-5.7-1.3-11.2-0.2-16.6c2.2-11.2,9.6-19.5,17.2-27.6
		c4.1-4.4,8.3-9,14.4-11.2c3.7-1.3,7.5-2.6,11.3-3.6c11.2-3,15.2-11.3,11.7-21.7c-2.5-7.5-8-12.5-15.1-16.1
		c-4.6-2.4-4.6-2.4-3.1-7.1c0.4-1.1,0.9-2.1,1.6-3.6c15.5,4.9,27.6,13,32.6,28.7c2.8,9,1.8,17.7-1.7,26.2c-1.3,3.1-1.7,6.1-0.8,9.3
		c3.1,11.1,4.4,22.5,4.9,34c0.3,6,0.6,12.1,0.5,18.2c-0.4,16.8-4.6,32.6-13.4,47.3c-3,5-4.6,6.6-10.7,6.6
		C145.5,205.7,141.7,205.6,138.5,205.6z"/>
	<path class="st0" d="M146.5,66c-0.1,8.8-6.9,14-14.8,14.2c-8.4,0.2-14.9-5.9-15-14.4c-0.1-7.6,6.9-14.3,14.7-14.3
		C139.8,51.5,146.6,58,146.5,66z"/>
</g>
<g>
	<path class="st0" d="M57.3,178.8c0,7.2,2.2,12.5,6.6,15.7c4.4,3.3,10.9,5,19.4,5.1v14.9c-14.3-0.1-25.4-3.2-33.2-9.2
		c-7.8-6-11.8-14.5-11.8-25.4v-32.2c0-7.4-2.4-12.6-7.1-15.8c-4.7-3.1-11.6-4.7-20.7-4.7v-15c9.8-0.1,16.9-1.8,21.3-5.1
		c4.4-3.3,6.6-8.3,6.6-15.1V59.7c0-11,4.1-19.5,12.2-25.6C58.7,28,69.6,25,83.3,25v14.8c-17.3,0.4-26,7.5-26,21.1v31.3
		c0,15.2-8.4,24.2-25.2,27v1.3c16.8,2.8,25.2,11.7,25.2,27V178.8z"/>
</g>
<g>
	<path class="st0" d="M220.6,147.4c0-15.2,8.4-24.2,25.2-27v-1.3c-16.8-2.8-25.2-11.7-25.2-27V60.9c0-13.7-8.7-20.7-26-21.1V25
		c13.7,0,24.6,3,32.8,9.1c8.1,6.1,12.2,14.6,12.2,25.6v32.5c0,6.8,2.2,11.8,6.6,15.1c4.4,3.3,11.5,5,21.3,5.1v15
		c-9,0-15.9,1.6-20.7,4.7c-4.7,3.1-7.1,8.4-7.1,15.8v32.2c0,10.9-3.9,19.3-11.8,25.4c-7.8,6-18.9,9.1-33.2,9.2v-14.9
		c8.5-0.1,15-1.8,19.4-5.1c4.4-3.3,6.6-8.5,6.6-15.7V147.4z"/>
</g>
<path class="st1" d="M43.9,219.5h37.4c0,0-2.4,11.2-8,25.6c-7.7,0-29.7,0.1-29.7,0.1L43.9,219.5z"/>
<path class="st1" d="M138.5,219.5h-2.3c0,0-4.7,25.6-7.9,25.6c2.4,0.1,10.1,0.1,10.1,0.1L138.5,219.5z"/>
<path class="st1" d="M138.4,19.7h-1.2c0,0-6.3-16.1-18.4-25.6c12.9,0.1,19.7,0,19.7,0L138.4,19.7z"/>
<path class="st1" d="M43.8,19.6l8,0.1c0,0,2.5-10,12.6-12c0-3.2,0-13.7,0-13.7L43.7-5.9L43.8,19.6z"/>
<g>
	<polygon class="st2" points="1026.2,341.2 1023.3,341.2 1023.3,341.2 1026.2,341.2 	"/>
</g>
<g>
	<path class="st0" d="M300,185.6V54.2h19.8v57.1h65.5V54.2h19.9v131.3h-19.9v-57.3h-65.5v57.3H300z"/>
	<path class="st0" d="M474.9,187.5c-9.7,0-18-2.1-25-6.3c-7-4.2-12.4-10.1-16.2-17.7c-3.8-7.6-5.7-16.5-5.7-26.6
		c0-10.1,1.9-19,5.7-26.7c3.8-7.7,9.1-13.7,15.9-18c6.8-4.3,14.8-6.5,23.9-6.5c7.4,0,14.5,1.7,21.1,5c6.6,3.3,12.1,8.6,16.2,15.8
		c4.2,7.2,6.3,16.8,6.3,28.7v6.8h-70c0.3,9.5,2.9,16.8,8,21.9c5.1,5.1,11.7,7.7,19.9,7.7c5.5,0,10.2-1.2,14.2-3.5
		c4-2.4,6.8-5.9,8.5-10.5l18.1,3.3c-2.2,8-6.9,14.4-14.1,19.3C494.6,185.1,485.6,187.5,474.9,187.5z M447.2,127.7h51.2
		c0-7.5-2.3-13.8-6.8-18.7c-4.5-4.9-10.5-7.4-17.9-7.4c-5.2,0-9.7,1.2-13.6,3.6c-3.9,2.4-6.9,5.6-9.2,9.6
		C448.7,118.8,447.4,123.1,447.2,127.7z"/>
	<path class="st0" d="M567.2,187.7c-6.2,0-11.9-1.2-16.9-3.5s-9-5.7-12-10.2c-2.9-4.5-4.4-9.9-4.4-16.4c0-5.6,1.1-10.2,3.2-13.8
		c2.2-3.6,5-6.4,8.7-8.5c3.6-2.1,7.7-3.7,12.2-4.7c4.5-1,9.1-1.8,13.7-2.4c5.9-0.7,10.7-1.3,14.3-1.7c3.7-0.4,6.3-1.2,8-2.2
		c1.7-1,2.5-2.7,2.5-5v-0.4c0-5.6-1.6-9.9-4.7-13s-7.8-4.6-14-4.6c-6.5,0-11.5,1.4-15.2,4.2c-3.7,2.8-6.3,6-7.7,9.5l-18-4.1
		c3.2-9,8.6-15.4,16.1-19.3c7.5-3.9,15.7-5.8,24.6-5.8c3.9,0,8.1,0.5,12.5,1.4c4.4,0.9,8.6,2.6,12.5,5.1c3.9,2.5,7.1,5.9,9.6,10.4
		c2.5,4.5,3.7,10.3,3.7,17.5v65.4H597v-13.5h-0.8c-1.8,3.7-5.1,7.2-9.8,10.6C581.8,186.1,575.3,187.7,567.2,187.7z M571.3,172.4
		c5.3,0,9.9-1,13.7-3.1c3.8-2.1,6.6-4.8,8.6-8.2c2-3.4,3-7,3-10.9v-12.7c-0.9,0.9-2.9,1.7-5.9,2.4c-3,0.7-6.2,1.3-9.6,1.7
		c-3.4,0.5-6.1,0.9-8.2,1.2c-5.6,0.7-10.3,2.2-14.3,4.4c-4,2.2-5.9,5.9-5.9,11c0,4.7,1.8,8.3,5.3,10.7
		C561.4,171.1,565.9,172.4,571.3,172.4z"/>
	<path class="st0" d="M660.4,54.2v131.3h-19.2V54.2H660.4z"/>
	<path class="st0" d="M732.2,87.1v15.4H712v54.2c0,5.6,1.2,9.1,3.6,10.7c2.4,1.6,5.1,2.4,8.2,2.4c1.5,0,2.9-0.1,4-0.3
		c1.2-0.2,2.1-0.4,2.7-0.5l3.5,15.8c-1.1,0.4-2.7,0.9-4.8,1.3c-2.1,0.4-4.6,0.7-7.7,0.7c-5,0.1-9.8-0.8-14.1-2.7
		c-4.4-1.9-7.9-4.8-10.6-8.7c-2.7-3.9-4-8.9-4-14.8v-58.2h-14.4V87.1h14.4V63.5H712v23.6H732.2z"/>
	<path class="st0" d="M774.6,127.1v58.5h-19.2V54.2h18.9v48.9h1.2c2.3-5.3,5.8-9.6,10.6-12.7c4.7-3.1,10.9-4.6,18.6-4.6
		c10.1,0,18.3,3.1,24.5,9.4c6.2,6.2,9.3,15.5,9.3,27.8v62.6h-19.2v-60.3c0-7.2-1.9-12.8-5.6-16.8c-3.7-4-8.9-6-15.5-6
		c-6.8,0-12.5,2.1-16.9,6.4C776.8,113.1,774.6,119.2,774.6,127.1z"/>
	<path class="st0" d="M871.9,223.8c-3,0-5.6-0.3-7.9-0.8s-3.9-1-4.9-1.5l4.6-15.9c5.3,1.4,9.7,1.5,13.3,0.3c3.6-1.2,6.6-5,8.9-11.4
		l2.8-7.8l-36-99.8h20.5l24.9,76.4h1l24.9-76.4h20.6l-41,112.8c-2.8,7.7-6.8,13.5-12,17.7C886.5,221.8,879.9,223.8,871.9,223.8z"/>
	<path class="st0" d="M969.2,186.8c-3.5,0-6.5-1.3-9-3.8c-2.5-2.5-3.8-5.5-3.8-9.1c0-3.5,1.3-6.5,3.8-9c2.5-2.5,5.5-3.8,9-3.8
		c3.5,0,6.5,1.3,9,3.8c2.5,2.5,3.8,5.5,3.8,9c0,3.5-1.3,6.6-3.8,9.1C975.8,185.5,972.7,186.8,969.2,186.8z"/>
	<path class="st0" d="M1044.6,187.5c-8,0-15-2-21.2-6.1c-6.2-4.1-11.1-9.9-14.6-17.5c-3.5-7.6-5.3-16.7-5.3-27.3
		c0-10.6,1.8-19.7,5.4-27.3c3.6-7.6,8.5-13.4,14.7-17.4c6.2-4,13.3-6,21.2-6c6.1,0,11,1,14.8,3c3.7,2,6.6,4.4,8.7,7.1
		c2.1,2.7,3.7,5.1,4.8,7.1h1.2V54.2h19.2v131.3h-18.7v-15.3h-1.6c-1.2,2.1-2.8,4.5-5,7.2c-2.2,2.7-5.1,5-8.9,7.1
		C1055.4,186.5,1050.6,187.5,1044.6,187.5z M1048.8,171.1c8.3,0,14.7-3.2,19.1-9.6c4.4-6.4,6.6-14.8,6.6-25.2
		c0-10.3-2.2-18.6-6.6-24.8c-4.4-6.3-10.8-9.4-19.1-9.4c-5.8,0-10.6,1.5-14.4,4.5c-3.8,3-6.7,7.1-8.7,12.2c-1.9,5.2-2.9,11-2.9,17.5
		c0,6.6,1,12.5,2.9,17.8c2,5.3,4.9,9.4,8.8,12.5C1038.4,169.6,1043.1,171.1,1048.8,171.1z"/>
	<path class="st0" d="M1163.1,187.5c-9.7,0-18-2.1-25-6.3c-7-4.2-12.4-10.1-16.2-17.7c-3.8-7.6-5.7-16.5-5.7-26.6
		c0-10.1,1.9-19,5.7-26.7c3.8-7.7,9.1-13.7,15.9-18c6.8-4.3,14.8-6.5,23.9-6.5c7.4,0,14.5,1.7,21.1,5c6.6,3.3,12.1,8.6,16.2,15.8
		c4.2,7.2,6.3,16.8,6.3,28.7v6.8h-70c0.3,9.5,2.9,16.8,8,21.9c5.1,5.1,11.7,7.7,19.9,7.7c5.5,0,10.2-1.2,14.2-3.5
		c4-2.4,6.8-5.9,8.5-10.5l18.1,3.3c-2.2,8-6.9,14.4-14.1,19.3C1182.8,185.1,1173.9,187.5,1163.1,187.5z M1135.4,127.7h51.2
		c0-7.5-2.3-13.8-6.8-18.7c-4.5-4.9-10.5-7.4-17.9-7.4c-5.2,0-9.7,1.2-13.6,3.6c-3.9,2.4-6.9,5.6-9.2,9.6
		C1136.9,118.8,1135.7,123.1,1135.4,127.7z"/>
	<path class="st0" d="M1310.5,87.1l-35.7,98.5h-20.5l-35.8-98.5h20.6l24.9,75.8h1l24.9-75.8H1310.5z"/>
</g>
<g>
</g>
<g>
</g>
<g>
</g>
<g>
</g>
<g>
</g>
<g>
</g>
</svg>
