<?xml version="1.0" encoding="utf-8"?>
<!-- Generator: Adobe Illustrator 23.0.1, SVG Export Plug-In . SVG Version: 6.00 Build 0)  -->
<svg version="1.1" id="Camada_1" xmlns="http://www.w3.org/2000/svg" xmlns:xlink="http://www.w3.org/1999/xlink" x="0px" y="0px"
	 viewBox="0 0 500 500" style="enable-background:new 0 0 500 500;" xml:space="preserve">
<style type="text/css">
	.st0{fill:#ABB2C3;}
</style>
<g>
	<path class="st0" d="M164.6,90c0.3-0.3,0.8-0.3,1.1,0c0.5,0.5,1,0.9,1.4,1.4c16.1,16.1,32.3,32.3,48.4,48.4
		c1.4,1.4,1.8,2.5,1.1,4.5c-5.7,16.8,1.9,35.2,17.9,43.1c2,1,2.5,2.1,2.5,4.2c-0.1,40.5-0.1,80.9,0,121.4c0,2-0.5,3-2.4,4
		c-13.6,6.9-21.7,20.9-19.4,36.8c2.3,16.2,14.3,28.1,30,30.6c19.9,3.2,39-11.3,41-31.3c1.5-15.4-4.7-27.1-17.8-35.2
		c-1.4-0.8-1.8-1.7-1.8-3.2c0-40.3,0-80.6,0-120.9c0-0.2,0-0.4,0-0.6c0-0.7,0.8-1,1.4-0.6c0.2,0.2,0.4,0.3,0.5,0.5
		c14.7,14.7,29.5,29.5,44.2,44.2c1.1,1.1,1.4,1.9,0.9,3.5c-7.2,21.1,6.3,43.4,28.2,47c20.1,3.3,39-11.2,41.2-31.6
		c2.3-21-13.9-39.3-35-39.4c-3.5,0-6.9,0.9-10.4,1.2c-1,0.1-2.3-0.1-2.9-0.8c-16.3-16.2-32.6-32.4-48.8-48.8c-0.6-0.6-1-2-0.8-2.8
		c5.5-21.6-7.4-41.7-29.4-45.3c-4.9-0.8-9.9-0.4-14.7,0.9c-0.9,0.2-2.3-0.1-2.9-0.7c-17-16.9-34-33.9-51-50.9
		c-0.2-0.2-0.4-0.5-0.8-0.9c0.6-0.6,1.1-1.3,1.7-1.9c13.3-13.3,26.5-26.5,39.8-39.8c12-12,30.4-12.1,42.5-0.1
		C337.8,94,405.3,161.5,472.7,228.9c12.2,12.2,12.1,30.5-0.3,42.8C432.7,311.5,393,351.2,353.3,391c-27.1,27.1-54.2,54.2-81.3,81.3
		c-5.2,5.2-11.3,8.5-18.6,9.3c-9,1-16.8-1.7-23.5-7.8c-0.6-0.6-1.3-1.2-1.9-1.8C161.1,405,94.2,338.2,27.3,271.3
		c-5.2-5.2-8.6-11.2-9.4-18.6c-1-9.3,1.7-17.3,8.1-24.1c4.6-4.8,9.3-9.4,14-14.1c41.1-41.1,82.3-82.3,123.4-123.4
		C163.8,90.8,164.2,90.4,164.6,90z"/>
</g>
</svg>
