<?xml version="1.0" encoding="utf-8"?>
<!-- Generator: Adobe Illustrator 23.0.1, SVG Export Plug-In . SVG Version: 6.00 Build 0)  -->
<svg version="1.1" id="Camada_1" xmlns="http://www.w3.org/2000/svg" xmlns:xlink="http://www.w3.org/1999/xlink" x="0px" y="0px"
	 viewBox="0 0 445 445" style="enable-background:new 0 0 445 445;" xml:space="preserve">
<style type="text/css">
	.st0{fill:none;stroke:#ABB2C3;stroke-width:30;stroke-miterlimit:10;}
	.st1{enable-background:new    ;}
	.st2{fill:#ABB2C3;}
</style>
<rect x="27.3" y="29.8" class="st0" width="390.5" height="390.5"/>
<g class="st1">
	<path class="st2" d="M164.5,236.4h-37.8V321H92.5V112.5h72c49.5,0,73.8,28.2,73.8,62.1C238.3,204.3,218.8,236.4,164.5,236.4z
		 M164.5,208.5c26.7,0,38.7-12.9,38.7-33.9c0-21.6-12-34.2-38.7-34.2h-37.8v68.1H164.5z"/>
</g>
<g class="st1">
	<path class="st2" d="M309.8,323.3c-33,0-56.3-19.5-57.5-44.5h29.5c1,11.3,11.8,20.5,27.5,20.5c16.5,0,25.3-7,25.3-16.5
		c0-27-80-11.5-80-62c0-22,20.5-39.8,53-39.8c31.3,0,51.8,16.8,53.3,44.3h-28.5c-1-12-10.3-20.3-25.8-20.3
		c-15.3,0-23.3,6.3-23.3,15.5c0,27.8,77.8,12.3,79.3,62C362.5,305.8,342.3,323.3,309.8,323.3z"/>
</g>
</svg>
